<svg xmlns="http://www.w3.org/2000/svg" viewBox="0 0 24 24" fill="currentColor">
  <path d="M12 0C5.372 0 0 5.372 0 12s5.372 12 12 12 12-5.372 12-12S18.628 0 12 0zm4.828 5.27c.386 0 .697.311.697.697s-.311.697-.697.697-.697-.311-.697-.697.311-.697.697-.697zM12 4.773c3.932 0 7.129 3.196 7.129 7.129S15.932 19.03 12 19.03 4.871 15.834 4.871 11.902 8.068 4.773 12 4.773zm0 1.395c-3.166 0-5.734 2.568-5.734 5.734S8.834 17.636 12 17.636s5.734-2.568 5.734-5.734S15.166 6.168 12 6.168zm0 1.395a4.34 4.34 0 0 1 4.34 4.339A4.34 4.34 0 0 1 12 16.241a4.34 4.34 0 0 1-4.339-4.339A4.34 4.34 0 0 1 12 7.563zm0 1.394a2.945 2.945 0 0 0-2.945 2.945A2.945 2.945 0 0 0 12 14.847a2.945 2.945 0 0 0 2.945-2.945A2.945 2.945 0 0 0 12 8.957zm0 1.394a1.551 1.551 0 1 1 0 3.102 1.551 1.551 0 0 1 0-3.102z"/>
</svg>
