<svg xmlns="http://www.w3.org/2000/svg" viewBox="0 0 24 24" fill="currentColor">
  <path d="M10.098 20.323c-3.977.391-7.414-1.406-7.672-4.02-.259-2.609 2.759-5.047 6.74-5.441 3.979-.394 7.413 1.404 7.671 4.018.259 2.613-2.759 5.049-6.739 5.443zM9.05 17.219c-.384.616-1.208.884-1.829.602-.612-.279-.79-.983-.406-1.593.379-.607 1.192-.875 1.814-.601.625.279.81.983.421 1.592zm2.535-1.171c-.156.27-.503.395-.771.277-.265-.11-.341-.411-.184-.679.154-.266.496-.39.758-.277.267.114.35.413.197.679zm.948-3.959c-1.013-.274-2.152-.021-3.036.673-1.146.899-1.312 2.177-.395 2.927.906.74 2.521.537 3.666-.365 1.146-.902 1.317-2.179.406-2.927-.218-.178-.451-.257-.641-.308zM21.186 12c0 .22-.02.44-.04.66-.019.14-.146.24-.285.22-.14-.02-.239-.146-.22-.285.021-.193.032-.393.032-.595 0-3.718-3.018-6.735-6.735-6.735-.137 0-.277.003-.412.009-.138.007-.257-.099-.264-.238-.006-.139.099-.257.238-.264.147-.006.296-.009.44-.009C18.026 4.763 21.186 8 21.186 12zm-2.183.047c0-.125-.005-.25-.014-.374-.009-.139.095-.259.234-.268.14-.009.259.094.268.233.01.135.015.271.015.409 0 2.418-1.961 4.379-4.379 4.379-.139 0-.243-.113-.243-.252 0-.138.104-.251.243-.251 2.144 0 3.876-1.732 3.876-3.876zM18.516 5.23c-1.404-1.307-3.274-2.109-5.331-2.109-.139 0-.243-.114-.243-.253 0-.138.104-.251.243-.251 2.18 0 4.161.851 5.636 2.234.101.094.106.252.012.353-.094.101-.252.106-.353.012l.036.024z"/>
</svg>
